<svg width="258" height="38" viewBox="0 0 258 38" fill="none" xmlns="http://www.w3.org/2000/svg">
<g filter="url(#filter0_i_1_269)">
<path d="M49.5679 6.66377V36.6989H56.6879V17.7048L64.8462 30.438H70.0873L78.2456 17.7048V36.6989H85.3656V6.66377H78.6906L67.5656 24.008L56.4901 6.66377H49.5679ZM90.3355 25.4886C90.3355 32.257 95.8238 37.3334 103.685 37.3334C108.58 37.3334 113.673 35.2606 115.552 31.2418L109.372 29.5497C108.086 31.3264 106.207 32.3416 103.735 32.3416C99.9771 32.3416 97.9005 29.9727 97.3566 27.0115H116.096V25.5309C116.096 18.7624 111.3 13.7284 103.339 13.7284C95.5271 13.7284 90.3355 19.1431 90.3355 25.4886ZM103.339 18.2971C106.652 18.2971 108.531 20.4122 108.976 23.035H97.4555C98.0488 20.4122 100.027 18.2971 103.339 18.2971ZM118.224 14.3629V19.1431H122.674V29.5497C122.674 34.3722 125.888 37.3334 131.425 37.3334C133.601 37.3334 135.826 36.8681 137.705 35.8528L136.469 31.411C135.282 31.834 134.095 32.1724 132.81 32.1724C130.387 32.1724 129.596 30.6918 129.596 28.8305V19.1431H136.716V14.3629H129.596V6.74838H122.674V14.3629H118.224ZM149.649 37.3334C152.616 37.3334 155.78 36.3181 157.363 34.0761L157.56 36.6989H163.741V23.1619C163.741 17.3241 158.945 13.7284 152.418 13.7284C147.622 13.7284 142.43 15.9281 141.293 20.2007L147.474 21.2583C148.215 19.4816 150.193 18.5932 152.319 18.5932C155.335 18.5932 157.017 20.3699 157.017 22.8658V24.1772C154.989 23.5426 153.259 23.2042 151.083 23.2042C145.892 23.2042 140.354 25.3617 140.354 30.3534C140.354 34.7952 144.903 37.3334 149.649 37.3334ZM147.177 30.0573C147.177 27.8152 150.094 27.1807 152.22 27.1807C153.061 27.1807 153.852 27.2653 154.693 27.3922C155.533 27.5614 156.275 27.7729 157.017 28.0267V28.2383C157.017 30.988 154.347 32.7647 151.33 32.7647C149.402 32.7647 147.177 31.9609 147.177 30.0573ZM169.257 5.14087V36.6989H175.635L175.833 33.7799C177.663 36.1489 180.629 37.3334 183.893 37.3334C191.557 37.3334 196.303 31.4533 196.303 25.404C196.303 19.3547 191.705 13.7284 184.288 13.7284C181.025 13.7284 178.157 14.9551 176.179 17.1972V5.14087H169.257ZM182.657 19.0585C186.859 19.0585 189.233 22.2312 189.233 25.5309C189.233 28.8728 186.76 32.0032 182.657 32.0032C178.503 32.0032 176.08 28.7882 176.08 25.5309C176.08 22.1889 178.553 19.0585 182.657 19.0585ZM200.836 14.3629V36.6989H207.758V23.8811C207.758 21.1314 209.884 19.0585 213.098 19.0585C216.51 19.0585 217.746 21.4698 217.746 24.0503V36.6989H224.668V23.2888C224.668 18.0856 221.553 13.7284 215.125 13.7284C211.961 13.7284 209.044 14.8705 207.412 17.2395L207.214 14.3629H200.836ZM230.193 5.14087V36.6989H236.572L236.77 33.7799C238.599 36.1489 241.566 37.3334 244.829 37.3334C252.493 37.3334 257.239 31.4533 257.239 25.404C257.239 19.3547 252.641 13.7284 245.224 13.7284C241.961 13.7284 239.093 14.9551 237.116 17.1972V5.14087H230.193ZM243.593 19.0585C247.796 19.0585 250.169 22.2312 250.169 25.5309C250.169 28.8728 247.697 32.0032 243.593 32.0032C239.439 32.0032 237.017 28.7882 237.017 25.5309C237.017 22.1889 239.489 19.0585 243.593 19.0585Z" fill="url(#paint0_linear_1_269)"/>
<path d="M24.7221 6.63208H21.6318V7.95404H24.7221V6.63208Z" fill="url(#paint1_linear_1_269)"/>
<path d="M27.0399 9.276H19.3142V10.598H27.0399V9.276Z" fill="url(#paint2_linear_1_269)"/>
<path d="M10.0434 18.5297H8.49829V19.8516H10.0434V18.5297Z" fill="url(#paint3_linear_1_269)"/>
<path d="M13.1335 18.5297H11.5884V19.8516H13.1335V18.5297Z" fill="url(#paint4_linear_1_269)"/>
<path d="M16.2238 18.5297H14.6787V19.8516H16.2238V18.5297Z" fill="url(#paint5_linear_1_269)"/>
<path d="M19.3142 18.5297H17.769V19.8516H19.3142V18.5297Z" fill="url(#paint6_linear_1_269)"/>
<path d="M22.4045 18.5297H20.8594V19.8516H22.4045V18.5297Z" fill="url(#paint7_linear_1_269)"/>
<path d="M25.4948 18.5297H23.9497V19.8516H25.4948V18.5297Z" fill="url(#paint8_linear_1_269)"/>
<path d="M28.5849 18.5297H27.0398V19.8516H28.5849V18.5297Z" fill="url(#paint9_linear_1_269)"/>
<path d="M31.6753 18.5297H30.1301V19.8516H31.6753V18.5297Z" fill="url(#paint10_linear_1_269)"/>
<path d="M34.7656 18.5297H33.2205V19.8516H34.7656V18.5297Z" fill="url(#paint11_linear_1_269)"/>
<path d="M37.8559 18.5297H36.3108V19.8516H37.8559V18.5297Z" fill="url(#paint12_linear_1_269)"/>
<path d="M16.9965 27.7834H15.4514V29.1054H16.9965V27.7834Z" fill="url(#paint13_linear_1_269)"/>
<path d="M24.7222 23.1566V31.0884C24.7222 31.485 25.0312 31.7494 25.4947 31.7494H36.3107C36.7742 31.7494 37.0832 31.485 37.0832 31.0884V23.1566C37.0832 22.76 36.7742 22.4956 36.3107 22.4956H25.4947C25.0312 22.4956 24.7222 22.7607 24.7222 23.1566ZM26.2673 27.7835H30.1301V30.4274H26.2673V27.7835ZM31.6753 30.4274V27.7835H35.5381V30.4274H31.6753ZM35.5381 26.4615H31.6753V23.8176H35.5381V26.4615ZM30.1301 23.8176V26.4615H26.2673V23.8176H30.1301Z" fill="url(#paint14_linear_1_269)"/>
<path d="M43.2638 35.7153V33.7323C43.2638 33.3357 42.9548 33.0713 42.4912 33.0713H40.9461V17.2077H43.2638C43.7273 17.2077 44.0364 16.9433 44.0364 16.5467V14.1011C44.0364 13.9028 43.9591 13.7045 43.7273 13.5723L37.8558 9.87082V2.00512C37.8558 1.60853 37.5468 1.34413 37.0832 1.34413H30.9027C30.4392 1.34413 30.1301 1.60853 30.1301 2.00512V4.91344L23.6406 0.815347C23.3315 0.617052 23.0225 0.617052 22.7135 0.815347L3.16753 13.2418H3.09027V13.3079L2.62673 13.5723C2.39496 13.7045 2.3177 13.9028 2.3177 14.1011V16.5467C2.3177 16.9433 2.62673 17.2077 3.09027 17.2077H5.40797V33.0713H3.86284C3.3993 33.0713 3.09027 33.3357 3.09027 33.7323V35.7153H0V37.0372H3.86284H42.4912H46.3541V35.7153H43.2638ZM36.3107 2.6661V3.32708H31.6753V2.6661H36.3107ZM31.6753 4.64905H36.3107V8.87934L31.6753 5.90492V4.64905ZM3.86284 14.5638H34.7655V13.2418H5.717L23.177 2.13797L42.4912 14.4323V15.8864H40.1735H6.18054H3.86284V14.5638ZM6.95311 17.2077H39.4009V33.0713H20.0868V23.8176H21.6319V22.4956H19.3142H10.8159H8.49824V23.8176H10.0434V33.0713H6.95311V17.2077ZM11.5885 23.8176H18.5416V33.0713H11.5885V23.8176ZM4.63541 35.7153V34.3933H6.18054H10.8159H19.3142H40.1735H41.7187V35.7153H4.63541Z" fill="url(#paint15_linear_1_269)"/>
</g>
<defs>
<filter id="filter0_i_1_269" x="0" y="0.666626" width="261.24" height="40.6667" filterUnits="userSpaceOnUse" color-interpolation-filters="sRGB">
<feFlood flood-opacity="0" result="BackgroundImageFix"/>
<feBlend mode="normal" in="SourceGraphic" in2="BackgroundImageFix" result="shape"/>
<feColorMatrix in="SourceAlpha" type="matrix" values="0 0 0 0 0 0 0 0 0 0 0 0 0 0 0 0 0 0 127 0" result="hardAlpha"/>
<feOffset dx="4" dy="4"/>
<feGaussianBlur stdDeviation="22"/>
<feComposite in2="hardAlpha" operator="arithmetic" k2="-1" k3="1"/>
<feColorMatrix type="matrix" values="0 0 0 0 0.376471 0 0 0 0 0.376471 0 0 0 0 0.376471 0 0 0 0.15 0"/>
<feBlend mode="normal" in2="shape" result="effect1_innerShadow_1_269"/>
</filter>
<linearGradient id="paint0_linear_1_269" x1="87.8665" y1="8.57475" x2="212.116" y2="29.1856" gradientUnits="userSpaceOnUse">
<stop stop-color="#DC3E88"/>
<stop offset="0.418735" stop-color="#B840AE"/>
<stop offset="1" stop-color="#843FE8"/>
</linearGradient>
<linearGradient id="paint1_linear_1_269" x1="22.2017" y1="6.77309" x2="24.0947" y2="6.88688" gradientUnits="userSpaceOnUse">
<stop stop-color="#DC3E88"/>
<stop offset="0.418735" stop-color="#B840AE"/>
<stop offset="1" stop-color="#843FE8"/>
</linearGradient>
<linearGradient id="paint2_linear_1_269" x1="20.739" y1="9.41701" x2="25.3835" y2="10.115" gradientUnits="userSpaceOnUse">
<stop stop-color="#DC3E88"/>
<stop offset="0.418735" stop-color="#B840AE"/>
<stop offset="1" stop-color="#843FE8"/>
</linearGradient>
<linearGradient id="paint3_linear_1_269" x1="8.78324" y1="18.6707" x2="9.73227" y2="18.6992" gradientUnits="userSpaceOnUse">
<stop stop-color="#DC3E88"/>
<stop offset="0.418735" stop-color="#B840AE"/>
<stop offset="1" stop-color="#843FE8"/>
</linearGradient>
<linearGradient id="paint4_linear_1_269" x1="11.8733" y1="18.6707" x2="12.8224" y2="18.6992" gradientUnits="userSpaceOnUse">
<stop stop-color="#DC3E88"/>
<stop offset="0.418735" stop-color="#B840AE"/>
<stop offset="1" stop-color="#843FE8"/>
</linearGradient>
<linearGradient id="paint5_linear_1_269" x1="14.9637" y1="18.6707" x2="15.9127" y2="18.6992" gradientUnits="userSpaceOnUse">
<stop stop-color="#DC3E88"/>
<stop offset="0.418735" stop-color="#B840AE"/>
<stop offset="1" stop-color="#843FE8"/>
</linearGradient>
<linearGradient id="paint6_linear_1_269" x1="18.054" y1="18.6707" x2="19.003" y2="18.6992" gradientUnits="userSpaceOnUse">
<stop stop-color="#DC3E88"/>
<stop offset="0.418735" stop-color="#B840AE"/>
<stop offset="1" stop-color="#843FE8"/>
</linearGradient>
<linearGradient id="paint7_linear_1_269" x1="21.1443" y1="18.6707" x2="22.0934" y2="18.6992" gradientUnits="userSpaceOnUse">
<stop stop-color="#DC3E88"/>
<stop offset="0.418735" stop-color="#B840AE"/>
<stop offset="1" stop-color="#843FE8"/>
</linearGradient>
<linearGradient id="paint8_linear_1_269" x1="24.2347" y1="18.6707" x2="25.1837" y2="18.6992" gradientUnits="userSpaceOnUse">
<stop stop-color="#DC3E88"/>
<stop offset="0.418735" stop-color="#B840AE"/>
<stop offset="1" stop-color="#843FE8"/>
</linearGradient>
<linearGradient id="paint9_linear_1_269" x1="27.3247" y1="18.6707" x2="28.2738" y2="18.6992" gradientUnits="userSpaceOnUse">
<stop stop-color="#DC3E88"/>
<stop offset="0.418735" stop-color="#B840AE"/>
<stop offset="1" stop-color="#843FE8"/>
</linearGradient>
<linearGradient id="paint10_linear_1_269" x1="30.4151" y1="18.6707" x2="31.3641" y2="18.6992" gradientUnits="userSpaceOnUse">
<stop stop-color="#DC3E88"/>
<stop offset="0.418735" stop-color="#B840AE"/>
<stop offset="1" stop-color="#843FE8"/>
</linearGradient>
<linearGradient id="paint11_linear_1_269" x1="33.5054" y1="18.6707" x2="34.4544" y2="18.6992" gradientUnits="userSpaceOnUse">
<stop stop-color="#DC3E88"/>
<stop offset="0.418735" stop-color="#B840AE"/>
<stop offset="1" stop-color="#843FE8"/>
</linearGradient>
<linearGradient id="paint12_linear_1_269" x1="36.5957" y1="18.6707" x2="37.5448" y2="18.6992" gradientUnits="userSpaceOnUse">
<stop stop-color="#DC3E88"/>
<stop offset="0.418735" stop-color="#B840AE"/>
<stop offset="1" stop-color="#843FE8"/>
</linearGradient>
<linearGradient id="paint13_linear_1_269" x1="15.7364" y1="27.9245" x2="16.6854" y2="27.953" gradientUnits="userSpaceOnUse">
<stop stop-color="#DC3E88"/>
<stop offset="0.418735" stop-color="#B840AE"/>
<stop offset="1" stop-color="#843FE8"/>
</linearGradient>
<linearGradient id="paint14_linear_1_269" x1="27.0018" y1="23.4827" x2="34.5919" y2="23.7434" gradientUnits="userSpaceOnUse">
<stop stop-color="#DC3E88"/>
<stop offset="0.418735" stop-color="#B840AE"/>
<stop offset="1" stop-color="#843FE8"/>
</linearGradient>
<linearGradient id="paint15_linear_1_269" x1="8.54857" y1="4.54617" x2="37.0146" y2="5.47909" gradientUnits="userSpaceOnUse">
<stop stop-color="#DC3E88"/>
<stop offset="0.418735" stop-color="#B840AE"/>
<stop offset="1" stop-color="#843FE8"/>
</linearGradient>
</defs>
</svg>
